PathFileType	4	(X/Y/Z)	40_2_29_p1_0-505_filt_butterworth.trc
DataRate	CameraRate	NumFrames	NumMarkers	Units	OrigDataRate	OrigDataStartFrame	OrigNumFrames
59.0	59.0	4	27	m	59.0	0	505
Frame#	Time	RHip			RKnee			RAnkle			RBigToe			RSmallToe			RHeel			LHip			LKnee			LAnkle			LBigToe			LSmallToe			LHeel			Neck			Head			Nose			RShoulder			RElbow			RWrist			RThumb			RIndex			RPinky			LShoulder			LElbow			LWrist			LThumb			LIndex			LPinky			
		X1	Y1	Z1	X2	Y2	Z2	X3	Y3	Z3	X4	Y4	Z4	X5	Y5	Z5	X6	Y6	Z6	X7	Y7	Z7	X8	Y8	Z8	X9	Y9	Z9	X10	Y10	Z10	X11	Y11	Z11	X12	Y12	Z12	X13	Y13	Z13	X14	Y14	Z14	X15	Y15	Z15	X16	Y16	Z16	X17	Y17	Z17	X18	Y18	Z18	X19	Y19	Z19	X20	Y20	Z20	X21	Y21	Z21	X22	Y22	Z22	X23	Y23	Z23	X24	Y24	Z24	X25	Y25	Z25	X26	Y26	Z26	X27	Y27	Z27	
0	0.0	0.32705445717988635	0.587000579975778	0.8241240091817655	0.3225661688318003	0.7288453768360189	1.2694285164683308	0.31633951756592066	0.8512180284389191	1.66769371359779	0.3024808910969695	0.7094724471101622	1.7197452361176333	0.36469915800019304	0.7337919648513289	1.7218173682058562	0.2743289815768396	0.9561782983896289	1.7358232498479251	0.14756970172576173	0.5806483720698109	0.8217633933697024	0.1055823232169737	0.7431479544688724	1.254427558954625	0.09151849750488836	0.8576934729391517	1.6631695707877967	0.13397346924503684	0.6899837935267605	1.7078116105882342	0.07585261086132714	0.7364375666050257	1.7159686439320787	0.09292012266175177	0.9336403992087898	1.732020530186309	0.25060071952439655	0.4446923914130454	0.29830309397078775	0.25489104835355203	0.38905704246512474	0.07961122435296834	0.2598950718148332	0.31707917398178526	0.21081083970062883	0.3703680382589071	0.4912231394982959	0.3932084729137957	0.39381023079806365	0.5549176080654441	0.6831527934243302	0.31648872679813034	0.47524652857283006	0.9074896162370549	0.23306957391470534	0.45241656205420744	0.9883732045573367	0.23553456045903953	0.46753318444277014	1.0016653654843657	0.25765680543683545	0.48423270360674053	0.9979350158458933	0.0874216639963885	0.46825792376866326	0.38845276660490535	0.0899058940929934	0.49784964799417536	0.6540340016410527	0.18135099316149686	0.41353300139486326	0.8928276290068382	0.2550463111259375	0.41317896731586934	0.9647863026719431	0.24950816542001858	0.42764143461020426	0.986716152648491	0.22728576157714775	0.4658001420269835	0.9952309300297514
1	0.0169491525423728	0.32744560674003603	0.586972980586891	0.8263676612840274	0.32420370424857664	0.7363077448236234	1.2712385963070472	0.3158365942821282	0.8494642883051238	1.6644765133968091	0.3045934196090819	0.7234801988755523	1.7245567930537993	0.3685000004955982	0.7330711403364383	1.7209791416065463	0.2750624798246642	0.9552458441435588	1.7322526770620066	0.1463941706636909	0.5765783010766139	0.8235005732471644	0.10511498128280672	0.7424319401575332	1.254076874069149	0.09145719188487013	0.857591733440432	1.6628814251830561	0.138832276579539	0.6896821113268702	1.7070387959154023	0.0751508993866678	0.7369729816112734	1.7184377442006	0.09244127696224622	0.9317772959799805	1.7289664078637388	0.25060643362602597	0.4446484716899562	0.2981663514805995	0.2548098506748985	0.38911233186159433	0.07971553682756796	0.2598814460276293	0.3170848850289239	0.21082067101174087	0.3704514761107855	0.49096537646485816	0.3910213968567051	0.3902406099104081	0.5539229876861335	0.6848958249906266	0.31697979449853064	0.4784554896107986	0.9078278685576288	0.23347740271431536	0.45293694509120863	0.9901077540726683	0.23563918308736667	0.46791192513552654	1.0014484205570853	0.26160892863381513	0.47654777920449126	0.9965085811296619	0.08749115197225008	0.46816850976052404	0.39036682131867784	0.08994819433997413	0.49546357831541343	0.6504577101246466	0.1825750656630987	0.4214355786258755	0.8936010034449802	0.25208831909308144	0.4202326869009488	0.9681530874069455	0.24972966971202679	0.4275225564019771	0.9866165607033968	0.22707045923278601	0.466423879319957	0.997311605370518
2	0.0338983050847457	0.32749532267967996	0.5869285787816356	0.8275265703880785	0.325089777493983	0.7403894400437178	1.2720701129513547	0.3155372786391355	0.848449980175288	1.6625772749213923	0.30597991734224883	0.7326333045347032	1.7277359408474537	0.37095093689056774	0.7326938463213305	1.7204987235642706	0.27549473581938694	0.9547390328494874	1.7301414139483764	0.14485286355452234	0.5759089799987759	0.8247517812531646	0.104668139407051	0.741763390187334	1.2537379038532368	0.09141979536290609	0.8575362253774363	1.6627422900365945	0.14173250783258873	0.6894873142741439	1.7065778816389479	0.0747470214546646	0.7372289934396912	1.7198705868322854	0.09207560613198042	0.9306869997323677	1.7271510172922906	0.2505938466108313	0.4446653941389728	0.29819145350264276	0.25477074593958976	0.38915155916412153	0.07977835837417002	0.25988013917525893	0.3170650475867633	0.21083158391103074	0.37051349158849933	0.4908021997965959	0.3897115227034396	0.38727823024781016	0.5528653622139198	0.6856467496991201	0.3169886309454956	0.47862850342426416	0.9078114159095291	0.23368094370963732	0.4528340652104234	0.9911043235677491	0.23569777621397137	0.46815829175525914	1.0014473985577081	0.2636213660727665	0.4718879606254911	0.9956236468870635	0.08751341543385627	0.46814653137405005	0.3915315158598187	0.0899655977217231	0.493723612521596	0.6478666924122967	0.18291423523133454	0.4257723361330463	0.8940486059568944	0.24984871433310216	0.4244336187928405	0.9702221747139749	0.24938284154395754	0.42747070233059403	0.9866200552967513	0.22689982415569354	0.4667278478777539	0.9985829177831452
3	0.0508474576271186	0.32692611048036835	0.5864301860454006	0.8274661849363678	0.3251741904032236	0.7411595712815092	1.2716391239213867	0.3154698789944102	0.8481938665321371	1.6620887435749254	0.3066837384497386	0.737129129975803	1.7293349914720437	0.3721576079533515	0.732828234347997	1.7204241216552651	0.27560996756114975	0.9546568444187156	1.7295708873248847	0.14352051521869497	0.5776145930856669	0.8253521238924664	0.10436532686995201	0.7413110373613956	1.2534962486687218	0.09140894221147526	0.8575348805944247	1.6627451374697944	0.14253855345595393	0.6894206857090318	1.7064552259890458	0.07466459584057542	0.737196441645777	1.720202774904119	0.09178290728516318	0.9302687874160245	1.726584991420939	0.25055846713810326	0.44475536934259374	0.29861068327965934	0.2547793766052513	0.38917322221810663	0.07978559272379784	0.2598873071254337	0.3170111818535935	0.21084581751759368	0.3705445840428736	0.49072963232962613	0.38932355618132636	0.3849920077265096	0.5515649859827416	0.6845495681329563	0.31653404297390236	0.4759114023028402	0.9075391187158943	0.2333844999595973	0.4503176906774282	0.9911121639460736	0.23552690457567915	0.4671673522648746	1.001701729142184	0.26305701203540705	0.4704339860734337	0.9953050281088465	0.08748651084519658	0.4681935230054042	0.39190793048519307	0.08995565946567644	0.49282559627725875	0.6465313449978715	0.18199763725870777	0.425326642451678	0.8940728564140086	0.24770901825009717	0.4255114191339643	0.9709405256726581	0.24777664129547144	0.4274997332130523	0.9867634252426064	0.22668221521031157	0.465926850237555	0.998902247757129
